<svg width="1147" height="1717" viewBox="0 0 1147 1717" fill="none" xmlns="http://www.w3.org/2000/svg">
<circle cx="529" cy="124" r="124" fill="url(#paint0_linear_0_1)"/>
<path d="M937.5 521C937.5 749.37 752.37 934.5 524 934.5C295.63 934.5 110.5 749.37 110.5 521C110.5 292.63 295.63 107.5 524 107.5C752.37 107.5 937.5 292.63 937.5 521Z" fill="url(#paint1_linear_0_1)"/>
<circle cx="525" cy="1217" r="500" fill="url(#paint2_linear_0_1)"/>
<rect x="168" y="866" width="136" height="713" transform="rotate(-90 168 866)" fill="url(#paint3_linear_0_1)"/>
<rect x="110.026" y="1402.77" width="136" height="713" transform="rotate(-144 110.026 1402.77)" fill="url(#paint4_linear_0_1)"/>
<rect x="1146.48" y="1086.5" width="136" height="713" transform="rotate(120 1146.48 1086.5)" fill="url(#paint5_linear_0_1)"/>
<rect x="203.105" y="302.673" width="293" height="182" transform="rotate(-17.65 203.105 302.673)" stroke="black" stroke-width="13"/>
<path d="M295.161 366.448L311.837 361.143L326.098 405.969C327.428 410.15 327.868 413.535 327.419 416.127C326.999 418.807 325.371 421.235 322.537 423.41C319.792 425.556 316.269 427.412 311.967 428.976C307.694 430.629 302.667 432.375 296.886 434.215C295.734 432.132 294.099 429.763 291.98 427.107C289.89 424.54 287.942 422.417 286.135 420.74C288.831 419.98 291.617 419.192 294.491 418.375C297.337 417.47 299.872 416.663 302.096 415.956C304.319 415.248 305.876 414.753 306.765 414.47C308.071 413.957 308.89 413.452 309.221 412.954C309.553 412.457 309.563 411.719 309.251 410.741L295.161 366.448ZM237.439 323.549L319.353 297.489L324.064 312.298L242.15 338.357L237.439 323.549ZM313.35 299.399L317.619 298.041L320.966 296.094L335.326 301.516C332.69 306.468 329.682 311.637 326.302 317.022C322.983 322.289 319.429 327.435 315.64 332.46C311.852 337.485 307.981 342.096 304.027 346.292C302.976 345.451 301.616 344.561 299.946 343.623C298.366 342.657 296.755 341.75 295.113 340.9C293.533 339.934 292.126 339.206 290.893 338.717C294.127 335.338 297.309 331.485 300.438 327.16C303.628 322.717 306.448 318.343 308.898 314.037C311.348 309.732 313.2 306.009 314.453 302.867L313.35 299.399ZM238.334 371.158L347.331 336.482L352.212 351.824L243.215 386.5L238.334 371.158ZM266.127 349.534L270.402 334.805C274.356 334.918 278.811 335.068 283.768 335.254C288.813 335.412 293.872 335.615 298.946 335.861C304.02 336.108 308.857 336.381 313.457 336.681C318.058 336.98 321.993 337.344 325.264 337.773L321.097 354.23C318.005 353.745 314.233 353.28 309.782 352.835C305.302 352.301 300.512 351.867 295.41 351.531C290.369 351.078 285.297 350.683 280.195 350.348C275.182 349.984 270.493 349.712 266.127 349.534ZM341.995 338.18L344.93 337.246L347.525 335.245L362.425 336.822C361.47 343.982 360.085 351.328 358.27 358.859C356.515 366.273 354.447 372.857 352.065 378.609L335.777 374.976C336.942 371.864 337.993 368.395 338.931 364.571C339.93 360.629 340.767 356.641 341.442 352.606C342.178 348.454 342.645 344.535 342.844 340.848L341.995 338.18ZM391.83 310.572L465.607 287.102L470.488 302.444L396.711 325.915L391.83 310.572ZM438.972 330.835L483.931 316.531L488.727 331.607L443.768 345.91L438.972 330.835ZM423.224 310.428L439.901 305.123L460.4 369.561L443.087 372.865L423.224 310.428ZM395.71 334.313L412.939 330.742C415.489 344.916 416.285 357.885 415.326 369.65C414.367 381.414 411.111 391.804 405.555 400.819C404.355 400.123 402.728 399.319 400.674 398.405C398.62 397.491 396.492 396.65 394.289 395.882C392.174 395.085 390.367 394.485 388.867 394.081C394.374 386.452 397.522 377.566 398.31 367.423C399.071 357.191 398.204 346.155 395.71 334.313ZM413.999 347.006C417.969 352.404 422.207 356.491 426.715 359.268C431.283 361.929 436.057 363.544 441.038 364.114C446.079 364.567 451.337 364.315 456.811 363.357C462.285 362.399 467.957 360.986 473.827 359.119C475.25 358.666 477.162 358.058 479.563 357.294C482.054 356.502 484.766 355.639 487.702 354.705C490.725 353.743 493.794 352.767 496.907 351.776C499.992 350.697 502.868 349.733 505.536 348.884C508.176 347.946 510.371 347.15 512.122 346.495C511.746 348.084 511.469 349.984 511.291 352.196C511.174 354.29 511.129 356.459 511.157 358.702C511.185 360.946 511.335 362.955 511.606 364.73L504.802 366.895L478.119 375.383C470.381 377.845 463.096 379.575 456.264 380.573C449.432 381.571 442.939 381.482 436.786 380.305C430.751 379.189 424.852 376.658 419.092 372.712C413.42 368.738 407.817 362.979 402.283 355.435L413.999 347.006ZM407.381 261.551L424.458 256.118L432.182 280.399L415.106 285.832L407.381 261.551ZM363.106 290.475L477.706 254.017L488.359 287.503L471.95 292.723L466.093 274.313L383.644 300.542L389.502 318.953L373.759 323.961L363.106 290.475Z" fill="black"/>
<rect x="589.29" y="430.835" width="293" height="182" transform="rotate(17.65 589.29 430.835)" stroke="black" stroke-width="13"/>
<path d="M627.546 536.249L644.222 541.555L629.959 586.381C628.629 590.561 627.032 593.579 625.169 595.435C623.277 597.379 620.546 598.42 616.976 598.558C613.495 598.723 609.548 598.202 605.133 596.993C600.69 595.873 595.578 594.394 589.797 592.554C590.06 590.189 590.094 587.311 589.9 583.919C589.678 580.616 589.314 577.758 588.809 575.344C591.448 576.282 594.177 577.249 596.995 578.243C599.841 579.149 602.376 579.955 604.599 580.663C606.823 581.37 608.379 581.865 609.269 582.148C610.631 582.484 611.591 582.544 612.149 582.33C612.707 582.116 613.142 581.52 613.453 580.541L627.546 536.249ZM605.224 467.883L687.137 493.946L682.426 508.755L600.512 482.691L605.224 467.883ZM681.134 492.036L685.403 493.394L689.26 493.74L697.847 506.462C692.834 508.981 687.392 511.461 681.522 513.903C675.769 516.284 669.895 518.431 663.9 520.343C657.905 522.255 652.081 523.781 646.429 524.922C646.057 523.628 645.461 522.116 644.64 520.386C643.909 518.684 643.118 517.012 642.269 515.371C641.538 513.669 640.81 512.262 640.086 511.15C644.679 510.261 649.502 508.955 654.555 507.233C659.726 505.45 664.555 503.509 669.042 501.411C673.53 499.313 677.192 497.344 680.03 495.505L681.134 492.036ZM578.445 507.257L687.441 541.937L682.559 557.279L573.563 522.599L578.445 507.257ZM613.623 505.668L625.623 496.117C628.785 498.494 632.334 501.191 636.272 504.207C640.298 507.251 644.311 510.339 648.309 513.473C652.307 516.606 656.097 519.624 659.679 522.526C663.261 525.429 666.263 528 668.684 530.24L655.774 541.264C653.53 539.081 650.721 536.522 647.345 533.587C643.998 530.563 640.339 527.44 636.369 524.218C632.516 520.935 628.605 517.683 624.635 514.461C620.754 511.267 617.083 508.336 613.623 505.668ZM682.104 540.239L685.039 541.173L688.314 541.04L699.563 550.936C694.647 556.228 689.272 561.423 683.438 566.521C677.722 571.558 672.23 575.736 666.962 579.055L655.768 566.679C658.517 564.811 661.379 562.587 664.355 560.008C667.447 557.368 670.435 554.597 673.317 551.694C676.317 548.731 678.963 545.802 681.255 542.907L682.104 540.239ZM738.731 546.503L812.506 569.977L807.625 585.319L733.849 561.845L738.731 546.503ZM765.498 590.28L810.457 604.585L805.66 619.66L760.701 605.355L765.498 590.28ZM764.436 564.526L781.112 569.832L760.61 634.269L744.57 626.962L764.436 564.526ZM728.179 568.122L744.304 575.162C738.195 588.204 731.351 599.249 723.771 608.296C716.191 617.344 707.529 623.942 697.786 628.09C697.208 626.828 696.345 625.231 695.197 623.299C694.049 621.366 692.797 619.45 691.443 617.55C690.178 615.678 689.05 614.144 688.059 612.948C696.961 609.903 704.665 604.47 711.169 596.647C717.703 588.736 723.372 579.227 728.179 568.122ZM735.771 589.049C735.893 595.748 736.99 601.533 739.064 606.404C741.255 611.215 744.219 615.292 747.954 618.636C751.807 621.918 756.244 624.75 761.265 627.131C766.286 629.512 771.731 631.637 777.602 633.505C779.025 633.957 780.937 634.566 783.338 635.33C785.828 636.122 788.541 636.985 791.476 637.919C794.5 638.881 797.569 639.858 800.681 640.848C803.823 641.75 806.727 642.625 809.395 643.474C812.092 644.234 814.344 644.852 816.151 645.329C814.926 646.409 813.602 647.8 812.179 649.502C810.873 651.143 809.583 652.887 808.31 654.735C807.037 656.582 805.998 658.309 805.193 659.914L798.389 657.749L771.707 649.259C763.97 646.797 757.024 644 750.871 640.866C744.718 637.733 739.471 633.909 735.129 629.393C730.847 624.995 727.496 619.521 725.074 612.972C722.742 606.451 721.497 598.513 721.339 589.158L735.771 589.049ZM779.748 515.479L796.824 520.913L789.099 545.193L772.022 539.76L779.748 515.479ZM726.9 513.503L841.498 549.966L830.844 583.452L814.435 578.23L820.292 559.82L737.845 533.587L731.987 551.997L716.245 546.989L726.9 513.503Z" fill="black"/>
<rect x="271.29" y="1326.84" width="293" height="182" transform="rotate(17.65 271.29 1326.84)" stroke="black" stroke-width="13"/>
<path d="M309.546 1432.25L326.222 1437.56L311.959 1482.38C310.629 1486.56 309.032 1489.58 307.169 1491.43C305.277 1493.38 302.546 1494.42 298.976 1494.56C295.495 1494.72 291.548 1494.2 287.133 1492.99C282.69 1491.87 277.578 1490.39 271.797 1488.55C272.06 1486.19 272.094 1483.31 271.9 1479.92C271.678 1476.62 271.314 1473.76 270.809 1471.34C273.448 1472.28 276.177 1473.25 278.995 1474.24C281.841 1475.15 284.376 1475.96 286.599 1476.66C288.823 1477.37 290.379 1477.87 291.269 1478.15C292.631 1478.48 293.591 1478.54 294.149 1478.33C294.707 1478.12 295.142 1477.52 295.453 1476.54L309.546 1432.25ZM287.224 1363.88L369.137 1389.95L364.426 1404.75L282.512 1378.69L287.224 1363.88ZM363.134 1388.04L367.403 1389.39L371.26 1389.74L379.847 1402.46C374.834 1404.98 369.392 1407.46 363.522 1409.9C357.769 1412.28 351.895 1414.43 345.9 1416.34C339.905 1418.26 334.081 1419.78 328.429 1420.92C328.057 1419.63 327.461 1418.12 326.64 1416.39C325.909 1414.68 325.118 1413.01 324.269 1411.37C323.538 1409.67 322.81 1408.26 322.086 1407.15C326.679 1406.26 331.502 1404.95 336.555 1403.23C341.726 1401.45 346.555 1399.51 351.042 1397.41C355.53 1395.31 359.192 1393.34 362.03 1391.5L363.134 1388.04ZM260.445 1403.26L369.441 1437.94L364.559 1453.28L255.563 1418.6L260.445 1403.26ZM295.623 1401.67L307.623 1392.12C310.785 1394.49 314.334 1397.19 318.272 1400.21C322.298 1403.25 326.311 1406.34 330.309 1409.47C334.307 1412.61 338.097 1415.62 341.679 1418.53C345.261 1421.43 348.263 1424 350.684 1426.24L337.774 1437.26C335.53 1435.08 332.721 1432.52 329.345 1429.59C325.998 1426.56 322.339 1423.44 318.369 1420.22C314.516 1416.94 310.605 1413.68 306.635 1410.46C302.754 1407.27 299.083 1404.34 295.623 1401.67ZM364.104 1436.24L367.039 1437.17L370.314 1437.04L381.563 1446.94C376.647 1452.23 371.272 1457.42 365.438 1462.52C359.722 1467.56 354.23 1471.74 348.962 1475.06L337.768 1462.68C340.517 1460.81 343.379 1458.59 346.355 1456.01C349.447 1453.37 352.435 1450.6 355.317 1447.69C358.317 1444.73 360.963 1441.8 363.255 1438.91L364.104 1436.24ZM420.731 1442.5L494.506 1465.98L489.625 1481.32L415.849 1457.85L420.731 1442.5ZM447.498 1486.28L492.457 1500.58L487.66 1515.66L442.701 1501.36L447.498 1486.28ZM446.436 1460.53L463.112 1465.83L442.61 1530.27L426.57 1522.96L446.436 1460.53ZM410.179 1464.12L426.304 1471.16C420.195 1484.2 413.351 1495.25 405.771 1504.3C398.191 1513.34 389.529 1519.94 379.786 1524.09C379.208 1522.83 378.345 1521.23 377.197 1519.3C376.049 1517.37 374.797 1515.45 373.443 1513.55C372.178 1511.68 371.05 1510.14 370.059 1508.95C378.961 1505.9 386.665 1500.47 393.169 1492.65C399.703 1484.74 405.372 1475.23 410.179 1464.12ZM417.771 1485.05C417.893 1491.75 418.99 1497.53 421.064 1502.4C423.255 1507.22 426.219 1511.29 429.954 1514.64C433.807 1517.92 438.244 1520.75 443.265 1523.13C448.286 1525.51 453.731 1527.64 459.602 1529.5C461.025 1529.96 462.937 1530.57 465.338 1531.33C467.828 1532.12 470.541 1532.99 473.476 1533.92C476.5 1534.88 479.569 1535.86 482.681 1536.85C485.823 1537.75 488.727 1538.62 491.395 1539.47C494.092 1540.23 496.344 1540.85 498.151 1541.33C496.926 1542.41 495.602 1543.8 494.179 1545.5C492.873 1547.14 491.583 1548.89 490.31 1550.73C489.037 1552.58 487.998 1554.31 487.193 1555.91L480.389 1553.75L453.707 1545.26C445.97 1542.8 439.024 1540 432.871 1536.87C426.718 1533.73 421.471 1529.91 417.129 1525.39C412.847 1520.99 409.496 1515.52 407.074 1508.97C404.742 1502.45 403.497 1494.51 403.339 1485.16L417.771 1485.05ZM461.748 1411.48L478.824 1416.91L471.099 1441.19L454.022 1435.76L461.748 1411.48ZM408.9 1409.5L523.498 1445.97L512.844 1479.45L496.435 1474.23L502.292 1455.82L419.845 1429.59L413.987 1448L398.245 1442.99L408.9 1409.5Z" fill="black"/>
<rect x="534.107" y="1169.67" width="293" height="182" transform="rotate(-17.65 534.107 1169.67)" stroke="black" stroke-width="13"/>
<path d="M626.163 1233.45L642.839 1228.15L657.102 1272.97C658.432 1277.15 658.873 1280.54 658.424 1283.13C658.003 1285.81 656.376 1288.24 653.542 1290.41C650.797 1292.56 647.274 1294.41 642.973 1295.98C638.699 1297.63 633.672 1299.38 627.891 1301.22C626.739 1299.14 625.104 1296.77 622.985 1294.11C620.895 1291.54 618.947 1289.42 617.14 1287.74C619.836 1286.98 622.622 1286.2 625.496 1285.38C628.342 1284.47 630.877 1283.67 633.1 1282.96C635.324 1282.25 636.88 1281.76 637.77 1281.47C639.076 1280.96 639.894 1280.45 640.226 1279.96C640.557 1279.46 640.567 1278.72 640.256 1277.74L626.163 1233.45ZM568.439 1190.55L650.353 1164.49L655.065 1179.3L573.151 1205.36L568.439 1190.55ZM644.349 1166.4L648.619 1165.04L651.966 1163.1L666.326 1168.52C663.69 1173.47 660.682 1178.64 657.302 1184.02C653.983 1189.29 650.43 1194.44 646.642 1199.46C642.854 1204.49 638.983 1209.1 635.029 1213.29C633.978 1212.45 632.617 1211.56 630.948 1210.63C629.367 1209.66 627.756 1208.75 626.115 1207.9C624.534 1206.94 623.127 1206.21 621.894 1205.72C625.128 1202.34 628.31 1198.49 631.439 1194.16C634.629 1189.72 637.449 1185.35 639.898 1181.04C642.348 1176.73 644.2 1173.01 645.453 1169.87L644.349 1166.4ZM569.337 1238.16L678.332 1203.48L683.214 1218.83L574.218 1253.51L569.337 1238.16ZM597.128 1216.54L601.404 1201.81C605.357 1201.92 609.812 1202.07 614.769 1202.26C619.814 1202.42 624.874 1202.62 629.947 1202.86C635.021 1203.11 639.858 1203.38 644.459 1203.68C649.059 1203.98 652.995 1204.35 656.265 1204.77L652.099 1221.23C649.007 1220.75 645.235 1220.28 640.784 1219.84C636.304 1219.3 631.514 1218.87 626.412 1218.53C621.371 1218.08 616.299 1217.69 611.197 1217.35C606.184 1216.99 601.495 1216.72 597.128 1216.54ZM672.996 1205.18L675.931 1204.25L678.527 1202.25L693.426 1203.82C692.472 1210.98 691.087 1218.33 689.272 1225.86C687.517 1233.27 685.45 1239.86 683.068 1245.61L666.78 1241.98C667.945 1238.86 668.996 1235.4 669.934 1231.57C670.932 1227.63 671.769 1223.64 672.444 1219.61C673.18 1215.46 673.647 1211.54 673.845 1207.85L672.996 1205.18ZM722.831 1177.57L796.606 1154.1L801.488 1169.44L727.712 1192.91L722.831 1177.57ZM769.973 1197.83L814.932 1183.53L819.729 1198.6L774.769 1212.91L769.973 1197.83ZM754.224 1177.43L770.901 1172.12L791.403 1236.56L774.09 1239.86L754.224 1177.43ZM726.712 1201.31L743.94 1197.74C746.491 1211.91 747.287 1224.88 746.329 1236.65C745.371 1248.41 742.114 1258.8 736.56 1267.82C735.359 1267.12 733.732 1266.32 731.678 1265.4C729.624 1264.49 727.496 1263.65 725.293 1262.88C723.178 1262.08 721.371 1261.48 719.871 1261.08C725.377 1253.45 728.525 1244.57 729.313 1234.42C730.073 1224.19 729.206 1213.15 726.712 1201.31ZM745.001 1214C748.971 1219.4 753.21 1223.49 757.717 1226.27C762.285 1228.93 767.06 1230.54 772.041 1231.11C777.082 1231.56 782.339 1231.31 787.813 1230.35C793.287 1229.4 798.959 1227.98 804.829 1226.11C806.252 1225.66 808.164 1225.05 810.566 1224.29C813.056 1223.5 815.769 1222.63 818.704 1221.7C821.728 1220.74 824.796 1219.76 827.909 1218.77C830.994 1217.69 833.87 1216.73 836.538 1215.88C839.178 1214.94 841.373 1214.14 843.124 1213.49C842.748 1215.08 842.471 1216.98 842.293 1219.19C842.176 1221.28 842.131 1223.45 842.159 1225.7C842.188 1227.94 842.337 1229.95 842.608 1231.72L835.804 1233.89L809.122 1242.38C801.385 1244.84 794.1 1246.57 787.267 1247.57C780.435 1248.57 773.943 1248.48 767.79 1247.3C761.754 1246.19 755.856 1243.66 750.095 1239.71C744.423 1235.74 738.82 1229.98 733.285 1222.43L745.001 1214ZM738.379 1128.55L755.456 1123.12L763.181 1147.4L746.105 1152.83L738.379 1128.55ZM694.105 1157.48L808.704 1121.01L819.359 1154.5L802.949 1159.72L797.091 1141.31L714.644 1167.54L720.502 1185.95L704.76 1190.96L694.105 1157.48Z" fill="black"/>
<path d="M498.5 866L342.182 730.25H654.818L498.5 866Z" fill="url(#paint6_linear_0_1)"/>
<defs>
<linearGradient id="paint0_linear_0_1" x1="496.5" y1="43" x2="536" y2="248" gradientUnits="userSpaceOnUse">
<stop stop-color="#FFD5B1"/>
<stop offset="1" stop-color="#DF9E66"/>
</linearGradient>
<linearGradient id="paint1_linear_0_1" x1="162.601" y1="234.415" x2="716.563" y2="587.112" gradientUnits="userSpaceOnUse">
<stop stop-color="#FFD5B1"/>
<stop offset="1" stop-color="#DF9E66"/>
</linearGradient>
<linearGradient id="paint2_linear_0_1" x1="118" y1="604.5" x2="574" y2="717" gradientUnits="userSpaceOnUse">
<stop stop-color="#FFD5B1"/>
<stop offset="1" stop-color="#DF9E66"/>
</linearGradient>
<linearGradient id="paint3_linear_0_1" x1="236" y1="866" x2="236" y2="1579" gradientUnits="userSpaceOnUse">
<stop stop-color="#212A42"/>
<stop offset="1" stop-color="#475886"/>
</linearGradient>
<linearGradient id="paint4_linear_0_1" x1="178.026" y1="1402.77" x2="178.026" y2="2115.77" gradientUnits="userSpaceOnUse">
<stop stop-color="#212A42"/>
<stop offset="1" stop-color="#475886"/>
</linearGradient>
<linearGradient id="paint5_linear_0_1" x1="1214.48" y1="1086.5" x2="1214.48" y2="1799.5" gradientUnits="userSpaceOnUse">
<stop stop-color="#212A42"/>
<stop offset="1" stop-color="#475886"/>
</linearGradient>
<linearGradient id="paint6_linear_0_1" x1="137" y1="745.665" x2="498.097" y2="867.198" gradientUnits="userSpaceOnUse">
<stop stop-color="#111520"/>
<stop offset="1" stop-color="#475886"/>
</linearGradient>
</defs>
</svg>
